<svg xmlns="http://www.w3.org/2000/svg" xmlns:xlink="http://www.w3.org/1999/xlink" width="512" zoomAndPan="magnify" viewBox="0 0 384 383.999986" height="512" preserveAspectRatio="xMidYMid meet" version="1.0"><defs><clipPath id="ea663111c0"><path d="M 180 110 L 384 110 L 384 365.316406 L 180 365.316406 Z M 180 110 " clip-rule="nonzero"/></clipPath><clipPath id="b5ba9395bc"><path d="M 0 18.851562 L 222 18.851562 L 222 365.316406 L 0 365.316406 Z M 0 18.851562 " clip-rule="nonzero"/></clipPath><clipPath id="6e5ac40ab2"><path d="M 0 99 L 186 99 L 186 365.316406 L 0 365.316406 Z M 0 99 " clip-rule="nonzero"/></clipPath><clipPath id="0e3e234628"><path d="M 20.582031 281.445312 L 61.230469 281.445312 L 61.230469 320.1875 L 20.582031 320.1875 Z M 20.582031 281.445312 " clip-rule="nonzero"/></clipPath><clipPath id="416c420764"><path d="M 40.90625 281.445312 L 45.703125 296.246094 L 61.230469 296.246094 L 48.667969 305.390625 L 53.464844 320.1875 L 40.90625 311.042969 L 28.347656 320.1875 L 33.144531 305.390625 L 20.582031 296.246094 L 36.109375 296.246094 L 40.90625 281.445312 " clip-rule="nonzero"/></clipPath><clipPath id="0e2415bfdb"><path d="M 322.769531 281.445312 L 363.417969 281.445312 L 363.417969 320.1875 L 322.769531 320.1875 Z M 322.769531 281.445312 " clip-rule="nonzero"/></clipPath><clipPath id="442e0b379f"><path d="M 343.09375 281.445312 L 347.890625 296.246094 L 363.417969 296.246094 L 350.855469 305.390625 L 355.652344 320.1875 L 343.09375 311.042969 L 330.535156 320.1875 L 335.332031 305.390625 L 322.769531 296.246094 L 338.296875 296.246094 L 343.09375 281.445312 " clip-rule="nonzero"/></clipPath></defs><g clip-path="url(#ea663111c0)"><path fill="#ffbd59" d="M 193.550781 355.09375 C 256.957031 356.199219 320.371094 362.855469 384 365.296875 L 272.480469 325.152344 C 326.132812 260.828125 322.582031 193.625 213.503906 110.234375 C 217.933594 128.640625 221.929688 162.800781 205.523438 195.847656 C 183.574219 239.761719 168.277344 291.886719 193.550781 355.09375 Z M 193.550781 355.09375 " fill-opacity="1" fill-rule="evenodd"/></g><path fill="#ff914d" d="M 193.550781 355.09375 C 212.84375 355.539062 232.128906 356.421875 251.421875 357.316406 C 166.726562 251.742188 273.148438 191.851562 213.503906 110.234375 C 217.933594 128.640625 221.929688 162.800781 205.523438 195.847656 C 183.574219 239.761719 168.277344 291.886719 193.550781 355.09375 Z M 193.550781 355.09375 " fill-opacity="1" fill-rule="evenodd"/><g clip-path="url(#b5ba9395bc)"><path fill="#008037" d="M 185.347656 99.363281 C 61.855469 187.640625 55.425781 257.949219 111.519531 325.152344 L 0 365.296875 C 59.199219 361.085938 118.171875 356.867188 176.925781 355.539062 C 150.320312 290.992188 165.84375 238.210938 188.007812 193.847656 C 207.296875 155.257812 198.207031 115.113281 193.988281 100.46875 L 193.988281 83.832031 C 207.511719 82.28125 218.378906 72.523438 221.707031 59.65625 C 217.273438 66.976562 209.074219 71.632812 199.980469 71.632812 C 185.570312 71.632812 174.035156 60.101562 174.035156 45.679688 C 174.035156 31.925781 184.902344 20.617188 198.429688 19.726562 C 195.769531 19.074219 193.105469 18.851562 190.226562 18.851562 C 172.046875 18.851562 157.410156 33.488281 157.410156 51.457031 C 157.410156 67.867188 169.605469 81.398438 185.339844 83.839844 L 185.339844 99.363281 Z M 185.347656 99.363281 " fill-opacity="1" fill-rule="evenodd"/></g><g clip-path="url(#6e5ac40ab2)"><path fill="#7ed957" d="M 185.347656 99.363281 C 61.855469 187.640625 55.425781 257.949219 111.519531 325.152344 L 0 365.296875 L 142.554688 336.238281 C 72.945312 231.558594 123.273438 175.21875 185.347656 99.363281 Z M 185.347656 99.363281 " fill-opacity="1" fill-rule="evenodd"/></g><g clip-path="url(#0e3e234628)"><g clip-path="url(#416c420764)"><path fill="#ff914d" d="M 20.582031 281.445312 L 61.230469 281.445312 L 61.230469 320.1875 L 20.582031 320.1875 Z M 20.582031 281.445312 " fill-opacity="1" fill-rule="nonzero"/></g></g><g clip-path="url(#0e2415bfdb)"><g clip-path="url(#442e0b379f)"><path fill="#ff914d" d="M 322.769531 281.445312 L 363.417969 281.445312 L 363.417969 320.1875 L 322.769531 320.1875 Z M 322.769531 281.445312 " fill-opacity="1" fill-rule="nonzero"/></g></g></svg>